<svg xmlns="http://www.w3.org/2000/svg" width="37" height="24" viewBox="0 0 37 24">
  <defs>
    <style>
      .cls-1 {
        fill: #00ebf6;
        fill-rule: evenodd;
      }
    </style>
  </defs>
  <path class="cls-1" d="M1251.67,5138.05h8.63a0.591,0.591,0,0,0,.62-0.63v-2.52a0.591,0.591,0,0,0-.62-0.63h-8.63a0.591,0.591,0,0,0-.62.63v2.52A0.591,0.591,0,0,0,1251.67,5138.05Zm0.61-2.52h7.4v1.26h-7.4v-1.26Zm-9.56,8.21a5.237,5.237,0,0,0,2.16-5.69c-0.68-4.1-4.75-5.11-6.84-5.05h-10.42a0.6,0.6,0,0,0-.62.63v21.47a0.6,0.6,0,0,0,.62.64h11.22c2.59,0,6.78-1.08,7.28-5.43A6.09,6.09,0,0,0,1242.72,5143.74Zm2.16,6.38c-0.55,4.67-6.23,4.35-6.53,4.35h-10.12v-20.2h9.81c0.06,0,4.93,0,5.61,3.97a4.083,4.083,0,0,1-2.65,4.93,0.622,0.622,0,0,0-.43.63,0.6,0.6,0,0,0,.49.63A4.935,4.935,0,0,1,1244.88,5150.12Zm19.12-1.33c0-5.56-3.58-9.47-8.63-9.47a8.78,8.78,0,0,0-8.64,8.21c0,5.43,3.7,9.47,8.64,9.47a8.364,8.364,0,0,0,8.01-5.56,0.5,0.5,0,0,0-.12-0.5,0.559,0.559,0,0,0-.49-0.26h-3.7a0.6,0.6,0,0,0-.56.45,2.5,2.5,0,0,1-2.53,1.45c-1.79,0-2.9-1.14-3.08-3.16h10.48A0.591,0.591,0,0,0,1264,5148.79Zm-11.78-.63a0.591,0.591,0,0,0-.62.63c0,3.09,1.67,5.05,4.32,5.05a3.639,3.639,0,0,0,3.52-1.89h2.34a7.191,7.191,0,0,1-6.41,3.79c-4.32,0-7.4-3.48-7.4-8.21,0-3.22,3.2-6.95,7.4-6.95,4.81,0,7.15,3.79,7.33,7.58h-10.48Zm-20.29-5.68h6.17a3.161,3.161,0,0,0,0-6.32h-6.17a0.583,0.583,0,0,0-.61.63v5.05A0.591,0.591,0,0,0,1231.93,5142.48Zm0.62-5.06h5.55a1.9,1.9,0,0,1,0,3.79h-5.55v-3.79Zm4.93,7.58h-5.55a0.583,0.583,0,0,0-.61.63v6.32a0.583,0.583,0,0,0,.61.63h5.55A3.791,3.791,0,0,0,1237.48,5145Zm0,6.32h-4.93v-5.06h4.93A2.531,2.531,0,0,1,1237.48,5151.32Zm18.19-9.48a3.866,3.866,0,0,0-4,3.79v0.63a0.591,0.591,0,0,0,.61.64h6.79a0.591,0.591,0,0,0,.61-0.64v-0.63A3.831,3.831,0,0,0,1255.67,5141.84Zm-2.77,3.79a2.788,2.788,0,0,1,5.55,0h-5.55Z" transform="translate(-1227 -5133)"/>
</svg>
