<svg xmlns="http://www.w3.org/2000/svg" width="26" height="26" viewBox="0 0 25.75 25.69"  >
  <defs>
    <style>
      .cls-1 {
        fill: #00ebf6;
        fill-rule: evenodd;
      }
    </style>
  </defs>
  <path id="Forma_1" data-name="Forma 1" class="cls-1" d="M1237.07,4918.33a12.835,12.835,0,0,0,0,25.67A12.835,12.835,0,1,0,1237.07,4918.33Zm0,24.18a11.345,11.345,0,1,1,11.43-11.4A11.378,11.378,0,0,1,1237.07,4942.51Zm0-19.67a8.325,8.325,0,0,0,0,16.65,8.586,8.586,0,0,0,5.15-1.71,0.749,0.749,0,0,0,.14-1.05,0.761,0.761,0,0,0-1.06-.14,7.131,7.131,0,0,1-4.23,1.4,6.83,6.83,0,1,1,6.89-6.88v0.75a1.505,1.505,0,1,1-3.01,0v-3.76a0.755,0.755,0,0,0-1.51,0v0.05a3.893,3.893,0,0,0-2.37-.8,3.76,3.76,0,1,0,0,7.52,3.927,3.927,0,0,0,2.91-1.29,3.016,3.016,0,0,0,5.49-1.72v-0.75A8.366,8.366,0,0,0,1237.07,4922.84Zm0,10.54a2.265,2.265,0,0,1,0-4.53A2.267,2.267,0,1,1,1237.07,4933.38Z" transform="translate(-1224.25 -4918.31)"/>
</svg>
