<svg xmlns="http://www.w3.org/2000/svg" width="17" height="33" viewBox="0 0 17 33" >
  <defs>
    <style>
      .cls-1 {
        fill: #00ebf6;
        fill-rule: evenodd;
      }
    </style>
  </defs>
  <path class="cls-1" d="M1246.12,5104h-7.17v-14.8H1235v-6.79h3.95v-3.82c0-3.5,2.21-7.59,8.46-7.59a33.487,33.487,0,0,1,3.88.21l0.66,0.09-0.16,6.36-0.73-.01s-1.64-.02-3.43-0.02c-1.33,0-1.51.33-1.51,1.62v3.16H1252l-0.33,6.79h-5.54V5104h-0.01Zm-5.69-1.47h4.21v-14.79h5.62l0.18-3.86h-5.8v-4.63c0-1.53.36-3.09,2.99-3.09,1.06,0,2.07.01,2.71,0.02l0.09-3.58c-0.65-.06-1.74-0.13-3.03-0.13-5.14,0-6.97,3.16-6.97,6.12v5.29h-3.95v3.86h3.95v14.79h0Z" transform="translate(-1235 -5071)"/>
</svg>
