<svg id="Grupa_1" data-name="Grupa 1" xmlns="http://www.w3.org/2000/svg" width="134.969" height="36.5" viewBox="0 0 134.969 36.5">
  <defs>
    <style>
      .cls-1 {
        fill: #fff;
      }

      .cls-1, .cls-2, .cls-3 {
        fill-rule: evenodd;
      }

      .cls-2 {
        fill: #00ebf6;
      }

      .cls-3 {
        fill: #fbfcfc;
      }
    </style>
  </defs>
  <path id="Łukasz" class="cls-1" d="M3.039,11.82V6.963l2.288-.9v-1.6l-2.288.9v-4.7H1.421V5.978L0,6.541v1.6l1.425-.563v5.49H7.439V11.82h-4.4ZM16.061,3.409V8.547a3.535,3.535,0,0,1-.792,2.49,2.742,2.742,0,0,1-2.112.853,2.626,2.626,0,0,1-2.006-.783,3.118,3.118,0,0,1-.739-2.226V3.409h-1.6V9.039a4.309,4.309,0,0,0,1.038,3.106,3.585,3.585,0,0,0,2.71,1.082A3.869,3.869,0,0,0,14.75,12.6a3.249,3.249,0,0,0,1.311-1.8v2.27h1.6V3.409h-1.6Zm11.473,9.661L23.1,8.212l4.329-4.8H25.475L21.832,7.614V0.048h-1.6V13.069h1.6V8.723l3.7,4.346h2.006ZM32.9,3.285a4.38,4.38,0,0,0-2.288.6,4.127,4.127,0,0,0-1.575,1.724,5.757,5.757,0,0,0-.572,2.639,5.7,5.7,0,0,0,.572,2.631,4.134,4.134,0,0,0,1.575,1.716,4.377,4.377,0,0,0,2.288.6,3.969,3.969,0,0,0,2.384-.7,3.667,3.667,0,0,0,1.364-1.883v2.464h1.6V3.409h-1.6V5.872a3.669,3.669,0,0,0-1.364-1.883,3.971,3.971,0,0,0-2.384-.7h0Zm0.457,1.425a3.34,3.34,0,0,1,1.7.431,2.994,2.994,0,0,1,1.17,1.241,3.974,3.974,0,0,1,.422,1.865,3.921,3.921,0,0,1-.422,1.856,3.061,3.061,0,0,1-1.17,1.24,3.285,3.285,0,0,1-1.7.44,3.1,3.1,0,0,1-2.367-.941,3.629,3.629,0,0,1-.889-2.6,3.63,3.63,0,0,1,.889-2.6,3.1,3.1,0,0,1,2.367-.941h0Zm10.47-1.425a3.7,3.7,0,0,0-2.446.748A2.43,2.43,0,0,0,40.484,6a2.192,2.192,0,0,0,.449,1.452,2.626,2.626,0,0,0,1.091.783,13.173,13.173,0,0,0,1.716.493,12.194,12.194,0,0,1,1.355.37,2.2,2.2,0,0,1,.827.51,1.214,1.214,0,0,1,.334.9,1.425,1.425,0,0,1-.466,1.108,1.856,1.856,0,0,1-1.293.422,2.761,2.761,0,0,1-1.786-.546,2.015,2.015,0,0,1-.765-1.425H40.4a3.3,3.3,0,0,0,1.285,2.305,4.532,4.532,0,0,0,2.815.827,3.583,3.583,0,0,0,2.367-.739,2.378,2.378,0,0,0,.889-1.918,2.3,2.3,0,0,0-.466-1.513A2.717,2.717,0,0,0,46.159,8.2a13.122,13.122,0,0,0-1.733-.5A13.416,13.416,0,0,1,43.1,7.341a2.084,2.084,0,0,1-.809-0.493A1.153,1.153,0,0,1,41.962,6a1.394,1.394,0,0,1,.484-1.117,2.009,2.009,0,0,1,1.346-.414,2.321,2.321,0,0,1,1.628.554,2.217,2.217,0,0,1,.713,1.417h1.531a3.6,3.6,0,0,0-1.205-2.3,3.9,3.9,0,0,0-2.631-.853h0Zm12,1.425v-1.3H49.212V4.764H54l-4.927,7.021v1.285H56V11.714H50.831Z" transform="translate(0 -0.063)"/>
  <path id="Wróbel" class="cls-2" d="M37.572,18.7l-1.95,12.05L32.872,18.7H27.5L24.772,30.75,22.822,18.7h-5.3l4.125,17.7h6.1L30.2,25.475,32.647,36.4h6.1l4.125-17.7h-5.3ZM49.922,25V22.375H45V36.4h4.925V30.35a2.635,2.635,0,0,1,.825-2.212,4.012,4.012,0,0,1,2.475-.637h1.425V22.25A5.067,5.067,0,0,0,52,23a6.421,6.421,0,0,0-2.075,2h0ZM62.9,22.2a8.124,8.124,0,0,0-3.775.863A6.346,6.346,0,0,0,56.5,25.55a7.442,7.442,0,0,0-.95,3.825A7.44,7.44,0,0,0,56.5,33.2a6.425,6.425,0,0,0,2.625,2.5,8.554,8.554,0,0,0,7.538,0,6.449,6.449,0,0,0,2.612-2.5,7.444,7.444,0,0,0,.95-3.825,7.462,7.462,0,0,0-.95-3.812,6.347,6.347,0,0,0-2.612-2.5A8.05,8.05,0,0,0,62.9,22.2h0Zm0,4.25a2.163,2.163,0,0,1,1.675.75,3.148,3.148,0,0,1,.675,2.175,3.2,3.2,0,0,1-.675,2.188,2.147,2.147,0,0,1-1.675.763,2.189,2.189,0,0,1-1.7-.75,3.188,3.188,0,0,1-.675-2.2A3.148,3.148,0,0,1,61.2,27.2a2.189,2.189,0,0,1,1.7-.75h0Zm3.425-11.175L60.072,18.1v3.3l6.25-2.475v-3.65ZM81.272,22.2a4.907,4.907,0,0,0-2.55.637,3.946,3.946,0,0,0-1.6,1.762V17.9H72.2V36.4h4.925V34.175a3.946,3.946,0,0,0,1.6,1.763,4.907,4.907,0,0,0,2.55.638,5.5,5.5,0,0,0,3.025-.863,5.838,5.838,0,0,0,2.125-2.5,8.888,8.888,0,0,0,.775-3.837,8.807,8.807,0,0,0-.775-3.825A5.852,5.852,0,0,0,84.3,23.062a5.5,5.5,0,0,0-3.025-.863h0Zm-1.625,4.3a2.432,2.432,0,0,1,1.862.762,2.974,2.974,0,0,1,.712,2.113,3.01,3.01,0,0,1-.712,2.137,2.431,2.431,0,0,1-1.862.762,2.392,2.392,0,0,1-1.825-.775,2.986,2.986,0,0,1-.725-2.125,2.95,2.95,0,0,1,.725-2.1,2.393,2.393,0,0,1,1.825-.775h0Zm23,2.625a7.316,7.316,0,0,0-.887-3.65,6.066,6.066,0,0,0-2.488-2.425,8.422,8.422,0,0,0-7.4.012,6.1,6.1,0,0,0-2.525,2.488,7.773,7.773,0,0,0-.9,3.825,7.843,7.843,0,0,0,.9,3.837,6.1,6.1,0,0,0,2.513,2.5,7.751,7.751,0,0,0,3.713.863,7.43,7.43,0,0,0,3.175-.675,6.571,6.571,0,0,0,2.4-1.862,5.945,5.945,0,0,0,1.225-2.663h-5.2a1.752,1.752,0,0,1-.65.925,1.968,1.968,0,0,1-1.2.35q-1.95,0-2.075-2.375h9.275a5.921,5.921,0,0,0,.125-1.15h0Zm-5-.9H93.271a2.385,2.385,0,0,1,.713-1.625,2.287,2.287,0,0,1,1.588-.55,2.137,2.137,0,0,1,1.5.55,2.029,2.029,0,0,1,.575,1.625h0ZM104.621,17.9V36.4h4.925V17.9h-4.925Z" transform="translate(0 -0.063)"/>
  <path id="_.me" data-name=".me" class="cls-3" d="M110.486,34.9v1.5h1.54V34.9h-1.54Zm12.446-6.314a2.98,2.98,0,0,0-1.708.511,2.781,2.781,0,0,0-1.078,1.449,2.7,2.7,0,0,0-1.029-1.463,3.125,3.125,0,0,0-3.36-.014,2.5,2.5,0,0,0-1,1.393v-1.75h-1.274V36.4h1.274V32.326a2.8,2.8,0,0,1,.609-1.953A2.1,2.1,0,0,1,117,29.708a1.965,1.965,0,0,1,1.512.6,2.459,2.459,0,0,1,.56,1.736V36.4h1.274V32.326a2.8,2.8,0,0,1,.609-1.953,2.088,2.088,0,0,1,1.617-.665,1.961,1.961,0,0,1,1.519.6,2.476,2.476,0,0,1,.553,1.736V36.4h1.274V31.934a3.469,3.469,0,0,0-.819-2.485,2.847,2.847,0,0,0-2.163-.861h0Zm12.026,3.542a3.586,3.586,0,0,0-.441-1.764,3.28,3.28,0,0,0-1.274-1.274,3.874,3.874,0,0,0-1.953-.476,3.956,3.956,0,0,0-1.96.476,3.35,3.35,0,0,0-1.337,1.372,4.792,4.792,0,0,0,0,4.193,3.358,3.358,0,0,0,1.337,1.365,3.954,3.954,0,0,0,1.96.476,4.151,4.151,0,0,0,1.736-.35A3.209,3.209,0,0,0,134.9,33.74h-1.358a1.943,1.943,0,0,1-.763,1.253,2.5,2.5,0,0,1-1.547.469,2.442,2.442,0,0,1-1.729-.658,2.691,2.691,0,0,1-.749-1.974H134.9a3.822,3.822,0,0,0,.056-0.7h0Zm-1.288.084h-4.914a2.622,2.622,0,0,1,.77-1.911,2.521,2.521,0,0,1,1.764-.651,2.69,2.69,0,0,1,1.218.28,2.052,2.052,0,0,1,.882.854,2.621,2.621,0,0,1,.28,1.428h0Z" transform="translate(0 -0.063)"/>
</svg>
