<svg id="Grupa_1" data-name="Grupa 1" xmlns="http://www.w3.org/2000/svg" width="145.938" height="36.5" viewBox="0 0 145.938 36.5">
  <defs>
    <style>
      .cls-1 {
        fill: #fff;
      }

      .cls-1, .cls-2 {
        fill-rule: evenodd;
      }

      .cls-2 {
        fill: #00ebf6;
      }
    </style>
  </defs>
  <path id="Łukasz" class="cls-1" d="M3.039,11.82V6.963l2.288-.9v-1.6l-2.288.9v-4.7H1.421V5.978L0,6.541v1.6l1.425-.563v5.49H7.439V11.82h-4.4ZM16.061,3.409V8.547a3.535,3.535,0,0,1-.792,2.49,2.742,2.742,0,0,1-2.112.853,2.626,2.626,0,0,1-2.006-.783,3.118,3.118,0,0,1-.739-2.226V3.409h-1.6V9.039a4.309,4.309,0,0,0,1.038,3.106,3.585,3.585,0,0,0,2.71,1.082A3.869,3.869,0,0,0,14.75,12.6a3.249,3.249,0,0,0,1.311-1.8v2.27h1.6V3.409h-1.6Zm11.473,9.661L23.1,8.212l4.329-4.8H25.475L21.832,7.614V0.048h-1.6V13.069h1.6V8.723l3.7,4.346h2.006ZM32.9,3.285a4.38,4.38,0,0,0-2.288.6,4.127,4.127,0,0,0-1.575,1.724,5.757,5.757,0,0,0-.572,2.639,5.7,5.7,0,0,0,.572,2.631,4.134,4.134,0,0,0,1.575,1.716,4.377,4.377,0,0,0,2.288.6,3.969,3.969,0,0,0,2.384-.7,3.667,3.667,0,0,0,1.364-1.883v2.464h1.6V3.409h-1.6V5.872a3.669,3.669,0,0,0-1.364-1.883,3.971,3.971,0,0,0-2.384-.7h0Zm0.457,1.425a3.34,3.34,0,0,1,1.7.431,2.994,2.994,0,0,1,1.17,1.241,3.974,3.974,0,0,1,.422,1.865,3.921,3.921,0,0,1-.422,1.856,3.061,3.061,0,0,1-1.17,1.24,3.285,3.285,0,0,1-1.7.44,3.1,3.1,0,0,1-2.367-.941,3.629,3.629,0,0,1-.889-2.6,3.63,3.63,0,0,1,.889-2.6,3.1,3.1,0,0,1,2.367-.941h0Zm10.47-1.425a3.7,3.7,0,0,0-2.446.748A2.43,2.43,0,0,0,40.484,6a2.192,2.192,0,0,0,.449,1.452,2.626,2.626,0,0,0,1.091.783,13.174,13.174,0,0,0,1.716.493,12.194,12.194,0,0,1,1.355.37,2.2,2.2,0,0,1,.827.51,1.214,1.214,0,0,1,.334.9,1.425,1.425,0,0,1-.466,1.108,1.856,1.856,0,0,1-1.293.422,2.761,2.761,0,0,1-1.786-.546,2.015,2.015,0,0,1-.765-1.425H40.4a3.3,3.3,0,0,0,1.285,2.305,4.532,4.532,0,0,0,2.815.827,3.583,3.583,0,0,0,2.367-.739,2.378,2.378,0,0,0,.889-1.918,2.3,2.3,0,0,0-.466-1.513A2.717,2.717,0,0,0,46.159,8.2a13.122,13.122,0,0,0-1.733-.5A13.416,13.416,0,0,1,43.1,7.341a2.084,2.084,0,0,1-.809-0.493A1.153,1.153,0,0,1,41.962,6a1.394,1.394,0,0,1,.484-1.117,2.009,2.009,0,0,1,1.346-.414,2.321,2.321,0,0,1,1.628.554,2.217,2.217,0,0,1,.713,1.417h1.531a3.6,3.6,0,0,0-1.205-2.3,3.9,3.9,0,0,0-2.631-.853h0Zm12,1.425v-1.3H49.212V4.764H54l-4.927,7.021v1.285H56V11.714H50.831Z" transform="translate(0 -0.063)"/>
  <path id="Wróbel.COM" class="cls-2" d="M37.534,18.7l-1.95,12.05L32.834,18.7H27.459L24.734,30.75,22.784,18.7h-5.3l4.125,17.7h6.1l2.45-10.925L32.609,36.4h6.1l4.125-17.7h-5.3ZM49.883,25V22.375H44.958V36.4h4.925V30.35a2.635,2.635,0,0,1,.825-2.212,4.012,4.012,0,0,1,2.475-.637h1.425V22.25a5.067,5.067,0,0,0-2.65.75,6.421,6.421,0,0,0-2.075,2h0Zm12.975-2.8a8.124,8.124,0,0,0-3.775.863,6.346,6.346,0,0,0-2.625,2.488,7.442,7.442,0,0,0-.95,3.825,7.44,7.44,0,0,0,.95,3.825,6.425,6.425,0,0,0,2.625,2.5,8.554,8.554,0,0,0,7.538,0,6.449,6.449,0,0,0,2.612-2.5,7.444,7.444,0,0,0,.95-3.825,7.462,7.462,0,0,0-.95-3.812,6.347,6.347,0,0,0-2.612-2.5,8.05,8.05,0,0,0-3.763-.863h0Zm0,4.25a2.163,2.163,0,0,1,1.675.75,3.148,3.148,0,0,1,.675,2.175,3.2,3.2,0,0,1-.675,2.188,2.147,2.147,0,0,1-1.675.763,2.189,2.189,0,0,1-1.7-.75,3.188,3.188,0,0,1-.675-2.2,3.148,3.148,0,0,1,.675-2.175,2.189,2.189,0,0,1,1.7-.75h0Zm3.425-11.175L60.033,18.1v3.3l6.25-2.475v-3.65ZM81.233,22.2a4.907,4.907,0,0,0-2.55.637,3.946,3.946,0,0,0-1.6,1.762V17.9H72.158V36.4h4.925V34.175a3.946,3.946,0,0,0,1.6,1.763,4.907,4.907,0,0,0,2.55.638,5.5,5.5,0,0,0,3.025-.863,5.838,5.838,0,0,0,2.125-2.5,8.888,8.888,0,0,0,.775-3.837,8.807,8.807,0,0,0-.775-3.825,5.852,5.852,0,0,0-2.125-2.488,5.5,5.5,0,0,0-3.025-.863h0Zm-1.625,4.3a2.432,2.432,0,0,1,1.863.762,2.974,2.974,0,0,1,.712,2.113,3.01,3.01,0,0,1-.712,2.137,2.431,2.431,0,0,1-1.863.762,2.392,2.392,0,0,1-1.825-.775,2.986,2.986,0,0,1-.725-2.125,2.95,2.95,0,0,1,.725-2.1,2.393,2.393,0,0,1,1.825-.775h0Zm23,2.625a7.316,7.316,0,0,0-.887-3.65,6.067,6.067,0,0,0-2.488-2.425,8.422,8.422,0,0,0-7.4.012,6.1,6.1,0,0,0-2.525,2.488,7.773,7.773,0,0,0-.9,3.825,7.843,7.843,0,0,0,.9,3.837,6.1,6.1,0,0,0,2.513,2.5,7.751,7.751,0,0,0,3.712.863,7.43,7.43,0,0,0,3.175-.675,6.571,6.571,0,0,0,2.4-1.862,5.934,5.934,0,0,0,1.225-2.663h-5.2a1.752,1.752,0,0,1-.65.925,1.968,1.968,0,0,1-1.2.35q-1.95,0-2.075-2.375h9.275a5.844,5.844,0,0,0,.125-1.15h0Zm-5-.9H93.232a2.385,2.385,0,0,1,.713-1.625,2.287,2.287,0,0,1,1.587-.55,2.137,2.137,0,0,1,1.5.55,2.029,2.029,0,0,1,.575,1.625h0ZM104.582,17.9V36.4h4.925V17.9h-4.925Zm6.72,17v1.5h1.54V34.9H111.3Zm7.364-8.47a4.677,4.677,0,0,0-2.45.637,4.386,4.386,0,0,0-1.659,1.785,5.6,5.6,0,0,0-.595,2.618,5.529,5.529,0,0,0,.595,2.6,4.394,4.394,0,0,0,1.659,1.778,4.675,4.675,0,0,0,2.45.637,4.806,4.806,0,0,0,2.982-.889,4.534,4.534,0,0,0,1.624-2.429h-1.344a3.29,3.29,0,0,1-1.218,1.561,3.529,3.529,0,0,1-2.058.581,3.178,3.178,0,0,1-2.933-1.806,4.425,4.425,0,0,1-.441-2.03,4.5,4.5,0,0,1,.441-2.051,3.168,3.168,0,0,1,2.933-1.813,3.531,3.531,0,0,1,2.058.581,3.292,3.292,0,0,1,1.218,1.561h1.344a4.535,4.535,0,0,0-1.624-2.429,4.807,4.807,0,0,0-2.982-.889h0ZM129.5,26.4a4.872,4.872,0,0,0-2.485.644,4.554,4.554,0,0,0-1.743,1.8,5.726,5.726,0,0,0,0,5.222,4.553,4.553,0,0,0,1.743,1.8,4.87,4.87,0,0,0,2.485.644,4.8,4.8,0,0,0,2.471-.644,4.58,4.58,0,0,0,1.729-1.8,5.726,5.726,0,0,0,0-5.222,4.581,4.581,0,0,0-1.729-1.8A4.8,4.8,0,0,0,129.5,26.4h0Zm0,1.19a3.536,3.536,0,0,1,1.813.469,3.247,3.247,0,0,1,1.26,1.344,4.819,4.819,0,0,1,0,4.088,3.291,3.291,0,0,1-1.26,1.351,3.494,3.494,0,0,1-1.813.476,3.562,3.562,0,0,1-1.827-.469,3.236,3.236,0,0,1-1.26-1.351,4.834,4.834,0,0,1,0-4.1,3.247,3.247,0,0,1,1.26-1.344,3.564,3.564,0,0,1,1.827-.469h0Zm14.91-.9-3.388,8.148L137.58,26.7h-1.526v9.7h1.274V28.686l3.108,7.714h1.134l3.094-7.742V36.4h1.274V26.7h-1.526Z" transform="translate(0 -0.063)"/>
</svg>
