<svg xmlns="http://www.w3.org/2000/svg" width="28" height="28" viewBox="0 0 28.03 27.94" >
  <defs>
    <style>
      .cls-1 {
        fill: #00ebf6;
        fill-rule: evenodd;
      }
    </style>
  </defs>
  <path id="Forma_1" data-name="Forma 1" class="cls-1" d="M1241.87,4861H1230.1a2.053,2.053,0,0,0-2.05,2.05v23.84a2.053,2.053,0,0,0,2.05,2.05h11.77a2.055,2.055,0,0,0,2.06-2.05v-23.84A2.055,2.055,0,0,0,1241.87,4861Zm-12.89,3.72H1243v17.7h-14.02v-17.7Zm1.12-2.79h11.77a1.127,1.127,0,0,1,1.13,1.12v0.74h-14.02v-0.74A1.118,1.118,0,0,1,1230.1,4861.93Zm11.77,26.08H1230.1a1.125,1.125,0,0,1-1.12-1.12v-3.54H1243v3.54A1.133,1.133,0,0,1,1241.87,4888.01Zm-5.88-4.19a1.86,1.86,0,1,0,1.87,1.86A1.865,1.865,0,0,0,1235.99,4883.82Zm0,2.79a0.93,0.93,0,1,1,.93-0.93A0.937,0.937,0,0,1,1235.99,4886.61Zm-1.87-23.28h1.87a0.469,0.469,0,0,0,.47-0.47,0.461,0.461,0,0,0-.47-0.46h-1.87a0.461,0.461,0,0,0-.47.46A0.469,0.469,0,0,0,1234.12,4863.33Zm3.27,0h0.47a0.467,0.467,0,0,0,.46-0.47,0.459,0.459,0,0,0-.46-0.46h-0.47a0.461,0.461,0,0,0-.47.46A0.469,0.469,0,0,0,1237.39,4863.33Zm11.03-.2a0.453,0.453,0,0,0-.66,0,0.471,0.471,0,0,0,0,.66,4.466,4.466,0,0,1,0,6.31,0.459,0.459,0,0,0,0,.65,0.459,0.459,0,0,0,.66,0A5.378,5.378,0,0,0,1248.42,4863.13Zm-1.97,1.06a0.453,0.453,0,0,0-.66,0,0.471,0.471,0,0,0,0,.66,3.03,3.03,0,0,1,0,4.31,0.467,0.467,0,1,0,.66.66A3.971,3.971,0,0,0,1246.45,4864.19Zm-22.23-.4a0.471,0.471,0,0,0,0-.66,0.453,0.453,0,0,0-.66,0,5.378,5.378,0,0,0,0,7.62,0.459,0.459,0,0,0,.66,0,0.459,0.459,0,0,0,0-.65A4.448,4.448,0,0,1,1224.22,4863.79Zm1.96,0.27a0.471,0.471,0,0,0-.66,0,3.971,3.971,0,0,0,0,5.63,0.459,0.459,0,0,0,.66,0,0.442,0.442,0,0,0,0-.65,3.075,3.075,0,0,1-.89-2.16,3.04,3.04,0,0,1,.89-2.16A0.453,0.453,0,0,0,1226.18,4864.06Z" transform="translate(-1221.97 -4861)"/>
</svg>
