<svg xmlns="http://www.w3.org/2000/svg" width="30" height="25.03" viewBox="0 0 30 25.03">
  <defs>
    <style>
      .cls-1 {
        fill: #343951;
        fill-rule: evenodd;
      }
    </style>
  </defs>
  <path class="cls-1" d="M1047.85,5145.1a0.48,0.48,0,0,0-.5-0.09l-29.05,10.78a0.455,0.455,0,0,0-.06.83l6.02,3.24,2.09,9.76a0.338,0.338,0,0,0,.09.19,0.02,0.02,0,0,0,.01.02,0.444,0.444,0,0,0,.3.16,0.06,0.06,0,0,0,.04.01h0.03a0.52,0.52,0,0,0,.25-0.07,0.179,0.179,0,0,0,.07-0.05,0.038,0.038,0,0,0,.02-0.02l4.53-4.34a0.442,0.442,0,0,0,0-.65,0.483,0.483,0,0,0-.67,0l-3.56,3.41,0.77-6.29,10.87,5.7a0.448,0.448,0,0,0,.34.04h0.03a0.514,0.514,0,0,0,.27-0.21c0-.01.01-0.01,0.01-0.02l0.03-.06,8.19-21.85A0.454,0.454,0,0,0,1047.85,5145.1Zm-28.26,11.19,23.74-8.81-18.66,11.55Zm7.94,4.61a0.689,0.689,0,0,0-.11.13,0.035,0.035,0,0,0-.01.02,0.337,0.337,0,0,0-.05.17l-0.67,5.43-1.47-6.87,16.12-9.98Zm11.53,5.73-10.38-5.45,17.79-14.31Z" transform="translate(-1018 -5144.97)"/>
</svg>
